<svg width="67" height="65" viewBox="0 0 67 65" fill="none" xmlns="http://www.w3.org/2000/svg">
<path d="M66.4446 16.3932C66.466 14.4198 66.2429 12.451 65.78 10.5289C64.9022 7.02105 62.8391 4.3433 59.7431 2.38052C58.1639 1.40001 56.3958 0.738716 54.5453 0.436473C53.114 0.198141 51.6663 0.0638777 50.2142 0.0348107C50.1035 0.0267775 49.9844 0.00803324 49.8709 0H16.5765C16.1556 0.0267775 15.7375 0.0455217 15.3165 0.0696214C13.2479 0.184765 11.1904 0.398984 9.24365 1.14072C5.54398 2.55993 2.87445 5.02881 1.30984 8.58485C0.77815 9.78448 0.501229 11.0618 0.304614 12.3551C0.151545 13.4026 0.0590934 14.4575 0.0276922 15.5149C0.0276922 15.6006 0.00830766 15.6809 0 15.7639V48.494C0.0276922 48.8689 0.0470767 49.2518 0.0747689 49.6293C0.21323 51.8117 0.501229 53.978 1.45107 55.9836C3.25106 59.786 6.26397 62.2844 10.4067 63.484C11.5698 63.8241 12.7772 63.9847 13.9873 64.0945C15.5242 64.2365 17.0612 64.2552 18.6036 64.2552H49.1481C50.6017 64.2543 52.0538 64.1649 53.4958 63.9874C55.7721 63.7036 57.9154 63.0502 59.8511 61.8184C62.147 60.3834 63.9571 58.3286 65.0573 55.9087C65.5723 54.784 65.8686 53.579 66.0819 52.3633C66.3948 50.5558 66.464 48.7269 66.4613 46.9007C66.4557 36.7253 66.4613 26.5632 66.4529 16.3932H66.4446ZM48.6579 27.0774V42.3727C48.6579 43.4893 48.4973 44.5872 47.9823 45.602C47.1792 47.1819 45.8776 48.178 44.1386 48.6547C43.1693 48.9224 42.1835 49.0751 41.1755 49.1179C38.5448 49.2384 36.2657 47.5112 35.7949 45.0049C35.5972 43.9227 35.7712 42.8077 36.2902 41.8301C36.8092 40.8525 37.6448 40.0659 38.6694 39.5905C39.5638 39.162 40.5247 38.921 41.4884 38.7229C42.5352 38.5033 43.5875 38.3132 44.6287 38.0802C45.3875 37.9115 45.8943 37.4643 46.041 36.6985C46.0786 36.5287 46.0972 36.3554 46.0964 36.1817C46.0964 31.3216 46.0964 26.4615 46.0909 21.6067C46.0891 21.4393 46.0649 21.2728 46.0189 21.1114C45.9081 20.7097 45.6035 20.4607 45.177 20.4848C44.734 20.5115 44.2964 20.5785 43.8617 20.6615C41.757 21.0632 39.6524 21.4728 37.5478 21.8825L31.1094 23.1411L27.3045 23.8855C27.2602 23.8935 27.2159 23.9123 27.1716 23.9203C26.4045 24.1265 26.1276 24.4639 26.0916 25.2324C26.086 25.3449 26.0916 25.4627 26.0916 25.5805C26.086 32.548 26.0916 39.5155 26.0833 46.4803C26.0833 47.605 25.9531 48.7189 25.4879 49.7659C24.718 51.4797 23.3556 52.5508 21.5168 53.0676C20.5476 53.3353 19.5507 53.496 18.5399 53.5281C15.8815 53.6245 13.6799 51.9215 13.223 49.3937C12.8353 47.2194 13.8599 44.8817 16.4187 43.8374C17.4073 43.4357 18.4402 43.2161 19.487 43.0073C20.2818 42.8466 21.0793 42.6967 21.8685 42.5333C22.9291 42.3111 23.483 41.6684 23.5301 40.6214V40.2197C23.5301 32.2936 23.5301 24.3621 23.5356 16.436C23.5356 16.1066 23.5716 15.7666 23.6519 15.4452C23.8457 14.6821 24.4079 14.2456 25.1639 14.0582C25.87 13.8814 26.59 13.7583 27.3073 13.6163C29.3371 13.2147 31.3669 12.8237 33.3995 12.4274L39.6857 11.1957C41.541 10.8368 43.3964 10.4727 45.2518 10.1165C45.861 10.0014 46.4758 9.88088 47.0878 9.83268C47.9463 9.76574 48.5361 10.2879 48.6219 11.1234C48.6441 11.3188 48.6552 11.5197 48.6552 11.7205C48.6607 16.835 48.6607 21.9548 48.6552 27.0693L48.6579 27.0774Z" fill="#69C9D2"/>
</svg>
