<svg width="584" height="49" viewBox="0 0 584 49" fill="none" xmlns="http://www.w3.org/2000/svg">
<path d="M21.0401 0.831894C29.0614 0.831894 35.3974 1.81323 40.0481 3.77589C44.6987 5.69589 47.9414 8.3839 49.7761 11.8399C51.6534 15.2532 52.5921 19.4559 52.5921 24.4479C52.5921 29.1839 51.5254 33.3226 49.3921 36.8639C47.2587 40.4052 44.0587 43.1572 39.7921 45.1199C35.5254 47.0399 30.2774 47.9999 24.0481 47.9999C20.2507 47.9999 16.3894 47.9999 12.4641 47.9999C8.53873 47.9999 4.57073 47.9786 0.560059 47.9359C0.901392 39.5306 1.07206 31.7012 1.07206 24.4479C1.07206 17.1092 0.901392 9.45056 0.560059 1.47189C5.63739 1.04523 12.4641 0.831894 21.0401 0.831894ZM25.8401 35.2639C29.8081 35.2639 32.4534 34.3039 33.7761 32.3839C35.0987 30.4639 35.7601 27.8186 35.7601 24.4479C35.7601 21.2052 35.0561 18.5812 33.6481 16.5759C32.2827 14.5706 29.6801 13.5679 25.8401 13.5679C21.7014 13.5679 18.6081 13.6959 16.5601 13.9519V35.2639H25.8401Z" fill="#492B1A"/>
<path d="M92.6291 14.2719C87.5517 14.0159 83.7971 13.8666 81.3651 13.8239V35.7119C83.8397 35.6692 87.5944 35.5199 92.6291 35.2639V47.9999H55.4451V35.2639C60.3517 35.5199 64.0851 35.6692 66.6451 35.7119V13.8239C64.0851 13.8666 60.3517 14.0159 55.4451 14.2719V1.5359H92.6291V14.2719Z" fill="#492B1A"/>
<path d="M95.5176 42.4959C96.9682 40.3199 98.1629 38.2932 99.1016 36.4159C100.083 34.5386 101.022 32.3626 101.918 29.8879C104.947 31.6372 108.467 33.0026 112.478 33.9839C116.488 34.9652 120.222 35.4559 123.678 35.4559C127.219 35.4559 129.715 35.1572 131.166 34.5599C132.616 33.9199 133.342 33.2372 133.342 32.5119C133.342 29.9092 129.374 28.6079 121.438 28.6079C112.734 28.6079 106.419 27.7119 102.494 25.9199C98.5682 24.0852 96.6056 21.1412 96.6056 17.0879C96.6056 11.3279 98.9949 7.08256 103.774 4.35189C108.552 1.62123 114.76 0.255894 122.398 0.255894C126.835 0.255894 131.379 0.831894 136.03 1.98389C140.723 3.09323 144.947 4.62923 148.702 6.5919C147.464 9.4079 146.163 12.8426 144.798 16.8959C144.542 17.7492 144.328 18.3892 144.158 18.8159C141.982 17.0666 138.696 15.6159 134.302 14.4639C129.907 13.2692 126.024 12.6719 122.654 12.6719C118.6 12.6719 115.87 12.9492 114.462 13.5039C113.054 14.0159 112.35 14.7839 112.35 15.8079C112.35 16.8319 113.31 17.6639 115.23 18.3039C117.192 18.9012 120.008 19.1999 123.678 19.1999C132.723 19.1999 139.294 20.2452 143.39 22.3359C147.486 24.3839 149.534 27.5412 149.534 31.8079C149.534 37.7812 147.358 42.0906 143.006 44.7359C138.654 47.3386 132.062 48.6399 123.23 48.6399C118.494 48.6399 113.672 48.1279 108.766 47.1039C103.859 46.0372 99.4429 44.5012 95.5176 42.4959Z" fill="#492B1A"/>
<path d="M180.563 48.6399C170.92 48.6399 163.816 46.5919 159.251 42.4959C154.685 38.3999 152.403 32.5546 152.403 24.9599C152.403 17.3226 154.685 11.2852 159.251 6.8479C163.816 2.41056 170.92 0.191895 180.563 0.191895C194.045 0.191895 203.069 4.82123 207.635 14.0799C203.795 15.4026 199.293 17.3866 194.131 20.0319C192.893 17.6426 190.931 15.8719 188.243 14.7199C185.597 13.5679 182.888 12.9919 180.115 12.9919C176.019 12.9919 172.968 14.0799 170.963 16.2559C168.957 18.3892 167.955 21.0346 167.955 24.1919C167.955 27.6052 169.021 30.3999 171.155 32.5759C173.331 34.7092 176.637 35.7759 181.075 35.7759C184.616 35.7759 187.432 35.1999 189.523 34.0479C191.613 32.8532 193.149 30.9759 194.131 28.4159C197.629 30.2932 202.109 32.4052 207.571 34.7519C205.437 39.9146 201.875 43.5199 196.883 45.5679C191.891 47.6159 186.451 48.6399 180.563 48.6399Z" fill="#492B1A"/>
<path d="M237.08 48.6399C227.309 48.6399 220.12 46.5279 215.512 42.3039C210.904 38.0372 208.6 32.0639 208.6 24.3839C208.6 16.7892 210.883 10.8586 215.448 6.5919C220.056 2.32523 227.267 0.191895 237.08 0.191895C246.936 0.191895 254.147 2.32523 258.712 6.5919C263.32 10.8586 265.624 16.7892 265.624 24.3839C265.624 32.1066 263.341 38.0799 258.776 42.3039C254.211 46.5279 246.979 48.6399 237.08 48.6399ZM237.08 35.5839C241.816 35.5839 245.229 34.6879 247.32 32.8959C249.411 31.0612 250.456 28.2239 250.456 24.3839C250.456 20.6292 249.411 17.8346 247.32 15.9999C245.229 14.1652 241.816 13.2479 237.08 13.2479C232.387 13.2479 228.995 14.1652 226.904 15.9999C224.813 17.8346 223.768 20.6292 223.768 24.3839C223.768 28.1812 224.813 30.9972 226.904 32.8319C228.995 34.6666 232.387 35.5839 237.08 35.5839Z" fill="#492B1A"/>
<path d="M294.853 21.5039H322.181V47.9999H310.917L309.573 36.6719C308.293 40.7252 306.01 43.7332 302.725 45.6959C299.44 47.6586 295.429 48.6399 290.693 48.6399C286.384 48.6399 282.544 47.6799 279.173 45.7599C275.845 43.8399 273.221 41.0879 271.301 37.5039C269.424 33.9199 268.485 29.7386 268.485 24.9599C268.485 17.3226 270.768 11.2852 275.333 6.8479C279.898 2.41056 287.002 0.191895 296.645 0.191895C302.149 0.191895 306.992 1.08789 311.173 2.87989C315.397 4.67189 318.981 7.44523 321.925 11.1999C320.005 12.1812 316.25 14.1439 310.661 17.0879L309.061 17.9839C307.397 16.3199 305.456 15.0826 303.237 14.2719C301.018 13.4186 298.672 12.9919 296.197 12.9919C292.101 12.9919 289.05 14.0799 287.045 16.2559C285.04 18.3892 284.037 21.0346 284.037 24.1919C284.037 27.6052 285.104 30.3572 287.237 32.4479C289.413 34.5386 292.72 35.5839 297.157 35.5839C299.077 35.5839 300.933 35.3066 302.725 34.7519C304.56 34.1972 306.096 33.2372 307.333 31.8719H294.853V21.5039Z" fill="#492B1A"/>
<path d="M376.45 17.0239C376.45 20.7359 375.532 23.8719 373.698 26.4319C371.906 28.9919 368.812 30.8479 364.418 31.9999C364.93 32.6826 365.292 33.2159 365.506 33.5999L375.874 47.9999H358.466C356.588 44.5012 353.623 39.5519 349.57 33.1519H340.162V47.9999H325.058C325.399 39.7226 325.57 31.9786 325.57 24.7679C325.57 17.5572 325.399 9.81323 325.058 1.5359H340.162V1.5999H353.282C361.9 1.5999 367.916 2.98656 371.33 5.7599C374.743 8.53323 376.45 12.2879 376.45 17.0239ZM340.162 13.8879V21.1839H348.802C352.428 21.1839 355.159 21.0772 356.994 20.8639C358.871 20.6079 360.172 20.2239 360.898 19.7119C361.623 19.1999 361.986 18.4532 361.986 17.4719C361.986 16.5332 361.644 15.8079 360.962 15.2959C360.279 14.7839 358.999 14.4212 357.122 14.2079C355.244 13.9946 352.471 13.8879 348.802 13.8879H340.162Z" fill="#492B1A"/>
<path d="M415.889 47.9999C415.078 45.5679 413.99 42.5172 412.625 38.8479H392.209L389.009 47.9999H372.945L390.865 1.5359H414.417L432.465 47.9999H415.889ZM408.977 28.8639C407.356 24.3839 405.692 19.9039 403.985 15.4239L402.449 11.2639C400.956 15.1466 398.758 21.0132 395.857 28.8639H408.977Z" fill="#492B1A"/>
<path d="M483.56 13.5039H448.744V20.2239C450.92 20.2666 454.184 20.2879 458.536 20.2879C466.045 20.2879 473.683 20.1599 481.448 19.9039V32.4479C473.683 32.1492 465.491 31.9999 456.872 31.9999C453.288 31.9999 450.579 32.0212 448.744 32.0639V47.9999H433.64C433.981 39.7226 434.152 31.9786 434.152 24.7679C434.152 17.5572 433.981 9.81323 433.64 1.5359H483.56V13.5039Z" fill="#492B1A"/>
<path d="M523.647 14.2719C518.569 14.0159 514.815 13.8666 512.383 13.8239V35.7119C514.857 35.6692 518.612 35.5199 523.647 35.2639V47.9999H486.463V35.2639C491.369 35.5199 495.103 35.6692 497.663 35.7119V13.8239C495.103 13.8666 491.369 14.0159 486.463 14.2719V1.5359H523.647V14.2719Z" fill="#492B1A"/>
<path d="M566.919 47.9999C566.108 45.5679 565.02 42.5172 563.655 38.8479H543.239L540.039 47.9999H523.975L541.895 1.5359H565.447L583.495 47.9999H566.919ZM560.007 28.8639C558.386 24.3839 556.722 19.9039 555.015 15.4239L553.479 11.2639C551.986 15.1466 549.788 21.0132 546.887 28.8639H560.007Z" fill="#492B1A"/>
</svg>
