<svg width="67" height="65" viewBox="0 0 67 65" fill="none" xmlns="http://www.w3.org/2000/svg">
<path d="M36.6468 0.00395283C39.0716 -0.00504331 41.4965 0.0185186 43.9206 0.0746314L44.5653 0.0971198C45.3096 0.122821 46.044 0.154947 46.9312 0.193499C50.4667 0.354132 52.8792 0.893858 54.9958 1.68738C57.189 2.5034 59.0365 3.60855 60.884 5.39478C62.5733 6.99984 63.8807 8.94137 64.7153 11.0844C65.5361 13.1308 66.0943 15.4664 66.2605 18.8847C66.3003 19.7393 66.3336 20.4525 66.3601 21.1721L66.3801 21.7954C66.4391 24.138 66.4646 26.4813 66.4565 28.8246L66.4598 31.2213V35.4298C66.468 37.7742 66.4425 40.1186 66.3834 42.4623L66.3635 43.0856C66.3369 43.8052 66.3037 44.5152 66.2638 45.373C66.0976 48.7913 65.5327 51.1236 64.7153 53.1701C63.8834 55.3154 62.5757 57.2585 60.884 58.8629C59.2224 60.496 57.2132 61.7599 54.9958 62.5671C52.8792 63.3606 50.4667 63.9004 46.9312 64.061C46.044 64.0995 45.3096 64.1317 44.5653 64.1574L43.9206 64.1766C41.4965 64.2337 39.0717 64.2584 36.6468 64.2505L34.1679 64.2537H29.8183C27.3934 64.2617 24.9686 64.237 22.5444 64.1799L21.8998 64.1606C21.111 64.1329 20.3223 64.1008 19.5339 64.0642C15.9983 63.9036 13.5859 63.3574 11.4659 62.5671C9.24849 61.7618 7.23997 60.4976 5.58106 58.8629C3.88986 57.2575 2.58123 55.3147 1.74644 53.1701C0.925683 51.1236 0.367436 48.7913 0.201291 45.373C0.164283 44.6107 0.131054 43.8482 0.101604 43.0856L0.08499 42.4623C0.0237277 40.1187 -0.00396603 37.7743 0.00191731 35.4298V28.8246C-0.00735678 26.4813 0.0170137 24.138 0.0750213 21.7954L0.0982814 21.1721C0.124865 20.4525 0.158093 19.7393 0.197968 18.8847C0.364113 15.4632 0.922359 13.1341 1.74311 11.0844C2.5784 8.94033 3.88959 6.99932 5.58438 5.39799C7.24216 3.76196 9.24941 2.4956 11.4659 1.68738C13.5859 0.893858 15.995 0.354132 19.5339 0.193499L21.8998 0.0971198L22.5444 0.081057C24.9674 0.0218569 27.3912 -0.00491809 29.8149 0.000740413L36.6468 0.00395283ZM33.2309 16.0672C31.0295 16.0371 28.8438 16.4303 26.801 17.224C24.7581 18.0176 22.8988 19.1959 21.3311 20.6904C19.7633 22.1848 18.5184 23.9656 17.6687 25.9293C16.819 27.8929 16.3814 30.0003 16.3814 32.1288C16.3814 34.2574 16.819 36.3648 17.6687 38.3284C18.5184 40.2921 19.7633 42.0729 21.3311 43.5673C22.8988 45.0618 24.7581 46.2401 26.801 47.0337C28.8438 47.8274 31.0295 48.2206 33.2309 48.1905C37.6373 48.1905 41.8633 46.4981 44.9791 43.4857C48.0949 40.4732 49.8454 36.3875 49.8454 32.1272C49.8454 27.867 48.0949 23.7813 44.9791 20.7688C41.8633 17.7564 37.6373 16.0672 33.2309 16.0672ZM33.2309 22.4925C34.5551 22.4689 35.8709 22.7007 37.1014 23.1743C38.3319 23.6478 39.4525 24.3537 40.3976 25.2507C41.3428 26.1477 42.0936 27.2178 42.6062 28.3985C43.1189 29.5791 43.383 30.8467 43.3832 32.1272C43.3834 33.4077 43.1197 34.6754 42.6075 35.8562C42.0953 37.0371 41.3449 38.1074 40.4 39.0047C39.4551 39.902 38.3348 40.6082 37.1045 41.0822C35.8741 41.5562 34.5584 41.7884 33.2342 41.7652C30.5903 41.7652 28.0548 40.7498 26.1853 38.9423C24.3158 37.1348 23.2655 34.6834 23.2655 32.1272C23.2655 29.5711 24.3158 27.1196 26.1853 25.3122C28.0548 23.5047 30.5903 22.4893 33.2342 22.4893L33.2309 22.4925ZM50.6761 11.2482C49.6041 11.2897 48.5903 11.7306 47.847 12.4786C47.1037 13.2266 46.6886 14.2236 46.6886 15.2608C46.6886 16.2981 47.1037 17.2951 47.847 18.0431C48.5903 18.791 49.6041 19.2319 50.6761 19.2734C51.7777 19.2734 52.8342 18.8503 53.6131 18.0972C54.3921 17.3441 54.8297 16.3227 54.8297 15.2576C54.8297 14.1926 54.3921 13.1711 53.6131 12.418C52.8342 11.6649 51.7777 11.2418 50.6761 11.2418V11.2482Z" fill="#69C9D2"/>
</svg>
