<svg width="67" height="65" viewBox="0 0 67 65" fill="none" xmlns="http://www.w3.org/2000/svg">
<path d="M53.2371 28.5936C42.6033 22.4893 24.8249 21.8468 14.6896 24.8989C13.028 25.3808 11.3665 24.417 10.868 22.9712C10.3696 21.3649 11.3665 19.7585 12.8619 19.2766C24.6588 15.9032 44.0987 16.5457 56.3941 23.6138C57.8894 24.417 58.3879 26.3446 57.5571 27.7904C56.7264 28.9148 54.7325 29.3967 53.2371 28.5936ZM52.9048 37.5893C52.0741 38.7138 50.5787 39.1957 49.4156 38.3925C40.4433 33.0914 26.8188 31.485 16.3511 34.6978C15.0219 35.0191 13.5265 34.3765 13.1942 33.0914C12.8619 31.8063 13.5265 30.3606 14.8557 30.0393C26.9849 26.5053 41.9387 28.2723 52.2402 34.3765C53.2371 34.8584 53.7356 36.4648 52.9048 37.5893ZM48.9172 46.4244C48.2525 47.3882 47.0895 47.7095 46.0926 47.0669C38.2833 42.4084 28.4803 41.4446 16.8496 44.0148C15.6865 44.3361 14.6896 43.5329 14.3573 42.5691C14.025 41.4446 14.8557 40.4808 15.8526 40.1595C28.4803 37.4286 39.4464 38.5531 48.0864 43.6935C49.2495 44.1754 49.4156 45.4606 48.9172 46.4244ZM33.6311 0C29.2671 0 24.946 0.831005 20.9142 2.44557C16.8825 4.06013 13.2192 6.42663 10.1334 9.40996C3.90147 15.435 0.400391 23.6068 0.400391 32.1276C0.400391 40.6484 3.90147 48.8201 10.1334 54.8452C13.2192 57.8286 16.8825 60.1951 20.9142 61.8096C24.946 63.4242 29.2671 64.2552 33.6311 64.2552C42.4444 64.2552 50.8967 60.8703 57.1287 54.8452C63.3606 48.8201 66.8617 40.6484 66.8617 32.1276C66.8617 27.9085 66.0022 23.7308 64.3322 19.8329C62.6622 15.935 60.2144 12.3933 57.1287 9.40996C54.0429 6.42663 50.3796 4.06013 46.3479 2.44557C42.3161 0.831005 37.995 0 33.6311 0Z" fill="#69C9D2"/>
</svg>
