<svg width="67" height="76" viewBox="0 0 67 76" fill="none" xmlns="http://www.w3.org/2000/svg">
<path d="M9.57143 4.75C4.29219 4.75 0 9.01016 0 14.25V61.75C0 66.9898 4.29219 71.25 9.57143 71.25H57.4286C62.7078 71.25 67 66.9898 67 61.75V14.25C67 9.01016 62.7078 4.75 57.4286 4.75H9.57143ZM54.0038 17.2188L38.4801 34.8234L56.7406 58.7812H42.4433L31.2567 44.2492L18.44 58.7812H11.3362L27.9366 39.9445L10.4239 17.2188H25.0801L35.2049 30.5039L46.9 17.2188H54.0038ZM48.3507 54.5656L22.9415 21.2117H18.7092L44.4025 54.5656H48.3357H48.3507Z" fill="#69C9D2"/>
</svg>
