<svg width="662" height="67" viewBox="0 0 662 67" fill="none" xmlns="http://www.w3.org/2000/svg">
<path d="M55.5361 16.976C48.8374 16.7626 42.3307 16.6346 36.0161 16.592V50H20.0161V16.592C13.6587 16.6346 7.17339 16.7626 0.560059 16.976V3.53596H55.5361V16.976Z" fill="#492B1A"/>
<path d="M96.0571 15.056L94.5851 18.768C90.5317 29.5626 86.2864 39.9733 81.8491 50C79.5451 55.12 76.2171 59.216 71.8651 62.288C67.5131 65.4026 62.0517 66.896 55.4811 66.768C54.6704 63.2266 53.9877 60.4533 53.4331 58.448C52.9211 56.4853 52.2384 54.5013 51.3851 52.496C53.7317 53.0506 55.9291 53.328 57.9771 53.328C61.3051 53.328 63.9504 52.624 65.9131 51.216C64.3771 46.6506 62.5637 41.744 60.4731 36.496C58.3824 31.248 55.3531 24.1013 51.3851 15.056H66.5531C67.0651 17.1893 67.7691 19.664 68.6651 22.48C69.5611 25.296 70.4571 28.0053 71.3531 30.608C71.6091 31.4186 72.0144 32.656 72.5691 34.32C73.1664 35.9413 73.6357 37.3066 73.9771 38.416L75.6411 33.36C78.8411 24.1013 80.7397 18 81.3371 15.056H96.0571Z" fill="#492B1A"/>
<path d="M111.433 24.4C111.39 26.96 111.369 30.8853 111.369 36.176C111.369 42.5333 111.411 47.1413 111.497 50H96.3926L96.4566 42.768C96.5419 34.832 96.5846 28.7093 96.5846 24.4C96.5846 20.304 96.5419 14.5013 96.4566 6.99195L96.3926 0.0799561H111.497C111.411 6.13862 111.369 11.088 111.369 14.928C111.369 19.1946 111.39 22.352 111.433 24.4Z" fill="#492B1A"/>
<path d="M148.259 34H127.395C127.736 35.8773 128.568 37.4133 129.891 38.608C131.256 39.76 133.176 40.336 135.651 40.336C137.443 40.336 139.128 39.9946 140.707 39.312C142.285 38.5866 143.544 37.584 144.483 36.304C147.341 37.712 151.139 39.2266 155.875 40.848C154.552 43.8346 152.141 46.224 148.643 48.016C145.187 49.7653 140.664 50.64 135.075 50.64C127.821 50.64 122.445 48.976 118.947 45.648C115.491 42.2773 113.763 37.8613 113.763 32.4C113.763 27.0666 115.491 22.736 118.947 19.408C122.403 16.08 127.779 14.416 135.075 14.416C139.427 14.416 143.203 15.1413 146.403 16.592C149.603 18.0426 152.056 20.0693 153.763 22.672C155.469 25.232 156.323 28.176 156.323 31.504C156.323 32.6133 156.28 33.4453 156.195 34H148.259ZM135.971 24.08C133.837 24.08 132.088 24.4853 130.723 25.296C129.357 26.1066 128.397 27.216 127.843 28.624H142.947C142.435 27.2586 141.603 26.1706 140.451 25.36C139.299 24.5066 137.805 24.08 135.971 24.08Z" fill="#492B1A"/>
<path d="M173.386 24.528C175.178 18.0853 179.636 14.864 186.762 14.864C187.999 14.864 189.194 14.9493 190.346 15.12L188.298 29.456C185.226 28.304 182.708 27.728 180.746 27.728C178.314 27.728 176.522 28.4533 175.37 29.904C174.218 31.3546 173.642 33.296 173.642 35.728V35.664L173.578 39.888C173.578 42.9173 173.663 46.288 173.834 50H158.538C158.879 43.856 159.05 38.0533 159.05 32.592C159.05 27.1306 158.879 21.2853 158.538 15.056C161.354 15.184 163.508 15.248 165.002 15.248C166.58 15.248 168.735 15.184 171.466 15.056L173.386 24.528Z" fill="#492B1A"/>
<path d="M209.952 37.008C211.872 37.008 213.472 37.7546 214.752 39.248C216.074 40.6986 216.736 42.7253 216.736 45.328C216.736 47.4613 216.352 49.7013 215.584 52.048C214.858 54.3946 213.834 56.2933 212.512 57.744H207.072C208.864 55.312 209.994 52.9226 210.464 50.576C208.245 50.576 206.474 49.9146 205.152 48.592C203.829 47.2693 203.168 45.6693 203.168 43.792C203.168 41.9146 203.829 40.3146 205.152 38.992C206.474 37.6693 208.074 37.008 209.952 37.008Z" fill="#492B1A"/>
<path d="M273.981 16.976C267.282 16.7626 260.776 16.6346 254.461 16.592V50H238.461V16.592C232.104 16.6346 225.618 16.7626 219.005 16.976V3.53596H273.981V16.976Z" fill="#492B1A"/>
<path d="M301.85 50C302.106 43.728 302.234 37.9466 302.234 32.656C302.234 30.7786 301.765 29.2853 300.826 28.176C299.93 27.0666 298.778 26.512 297.37 26.512C295.877 26.512 294.597 27.2373 293.53 28.688C292.506 30.1386 291.994 32.1226 291.994 34.64L291.93 34.512C291.93 41.4666 292.015 46.6293 292.186 50H276.89C277.231 43.856 277.402 35.536 277.402 25.04C277.402 14.544 277.231 6.22396 276.89 0.0799561H292.122L292.186 19.792L292.122 23.184C293.146 20.1973 294.661 18 296.666 16.592C298.714 15.1413 301.018 14.416 303.578 14.416C306.138 14.416 308.357 14.992 310.234 16.144C312.111 17.2533 313.519 18.768 314.458 20.688C315.439 22.608 315.93 24.7626 315.93 27.152V36.368C315.93 42.0426 316.037 46.5866 316.25 50H301.85Z" fill="#492B1A"/>
<path d="M353.006 34H332.142C332.483 35.8773 333.315 37.4133 334.638 38.608C336.003 39.76 337.923 40.336 340.398 40.336C342.19 40.336 343.875 39.9946 345.454 39.312C347.033 38.5866 348.291 37.584 349.23 36.304C352.089 37.712 355.886 39.2266 360.622 40.848C359.299 43.8346 356.889 46.224 353.39 48.016C349.934 49.7653 345.411 50.64 339.822 50.64C332.569 50.64 327.193 48.976 323.694 45.648C320.238 42.2773 318.51 37.8613 318.51 32.4C318.51 27.0666 320.238 22.736 323.694 19.408C327.15 16.08 332.526 14.416 339.822 14.416C344.174 14.416 347.95 15.1413 351.15 16.592C354.35 18.0426 356.803 20.0693 358.51 22.672C360.217 25.232 361.07 28.176 361.07 31.504C361.07 32.6133 361.027 33.4453 360.942 34H353.006ZM340.718 24.08C338.585 24.08 336.835 24.4853 335.47 25.296C334.105 26.1066 333.145 27.216 332.59 28.624H347.694C347.182 27.2586 346.35 26.1706 345.198 25.36C344.046 24.5066 342.553 24.08 340.718 24.08Z" fill="#492B1A"/>
<path d="M402.018 50.64C392.375 50.64 385.271 48.592 380.706 44.496C376.14 40.4 373.858 34.5546 373.858 26.96C373.858 19.3226 376.14 13.2853 380.706 8.84796C385.271 4.41062 392.375 2.19196 402.018 2.19196C415.5 2.19196 424.524 6.82129 429.09 16.08C425.25 17.4026 420.748 19.3866 415.586 22.032C414.348 19.6426 412.386 17.872 409.698 16.72C407.052 15.568 404.343 14.992 401.57 14.992C397.474 14.992 394.423 16.08 392.418 18.256C390.412 20.3893 389.41 23.0346 389.41 26.192C389.41 29.6053 390.476 32.4 392.61 34.576C394.786 36.7093 398.092 37.776 402.53 37.776C406.071 37.776 408.887 37.2 410.978 36.048C413.068 34.8533 414.604 32.976 415.586 30.416C419.084 32.2933 423.564 34.4053 429.026 36.752C426.892 41.9146 423.33 45.52 418.338 47.568C413.346 49.616 407.906 50.64 402.018 50.64Z" fill="#492B1A"/>
<path d="M446.841 24.528C448.633 18.0853 453.091 14.864 460.217 14.864C461.454 14.864 462.649 14.9493 463.801 15.12L461.753 29.456C458.681 28.304 456.163 27.728 454.201 27.728C451.769 27.728 449.977 28.4533 448.825 29.904C447.673 31.3546 447.097 33.296 447.097 35.728V35.664L447.033 39.888C447.033 42.9173 447.118 46.288 447.289 50H431.993C432.334 43.856 432.505 38.0533 432.505 32.592C432.505 27.1306 432.334 21.2853 431.993 15.056C434.809 15.184 436.963 15.248 438.457 15.248C440.035 15.248 442.19 15.184 444.921 15.056L446.841 24.528Z" fill="#492B1A"/>
<path d="M498.609 34H477.745C478.086 35.8773 478.918 37.4133 480.241 38.608C481.606 39.76 483.526 40.336 486.001 40.336C487.793 40.336 489.478 39.9946 491.057 39.312C492.635 38.5866 493.894 37.584 494.833 36.304C497.691 37.712 501.489 39.2266 506.225 40.848C504.902 43.8346 502.491 46.224 498.993 48.016C495.537 49.7653 491.014 50.64 485.425 50.64C478.171 50.64 472.795 48.976 469.297 45.648C465.841 42.2773 464.113 37.8613 464.113 32.4C464.113 27.0666 465.841 22.736 469.297 19.408C472.753 16.08 478.129 14.416 485.425 14.416C489.777 14.416 493.553 15.1413 496.753 16.592C499.953 18.0426 502.406 20.0693 504.113 22.672C505.819 25.232 506.673 28.176 506.673 31.504C506.673 32.6133 506.63 33.4453 506.545 34H498.609ZM486.321 24.08C484.187 24.08 482.438 24.4853 481.073 25.296C479.707 26.1066 478.747 27.216 478.193 28.624H493.297C492.785 27.2586 491.953 26.1706 490.801 25.36C489.649 24.5066 488.155 24.08 486.321 24.08Z" fill="#492B1A"/>
<path d="M549.912 39.376C549.912 40.8266 550.082 41.8506 550.424 42.448C550.765 43.0453 551.448 43.472 552.472 43.728L552.216 49.744C550.85 49.9573 549.656 50.1066 548.632 50.192C547.65 50.2773 546.328 50.32 544.664 50.32C540.994 50.32 538.562 49.5093 537.368 47.888C536.173 46.224 535.576 44.112 535.576 41.552V39.952C534.338 43.4506 532.525 46.0533 530.136 47.76C527.789 49.4666 524.781 50.32 521.112 50.32C516.845 50.32 513.624 49.4666 511.448 47.76C509.314 46.0533 508.248 43.5146 508.248 40.144C508.248 37.3706 509.165 35.1946 511 33.616C512.834 32.0373 515.672 30.9493 519.512 30.352C516.269 28.048 513.026 26.0426 509.784 24.336C512.344 21.0933 515.266 18.64 518.552 16.976C521.837 15.2693 525.826 14.416 530.52 14.416C537.09 14.416 541.954 15.8453 545.112 18.704C548.312 21.52 549.912 25.872 549.912 31.76V39.376ZM531.864 25.68C529.688 25.68 527.768 26.0426 526.104 26.768C524.44 27.4933 522.946 28.5813 521.624 30.032C524.184 29.7333 527.384 29.584 531.224 29.584C532.802 29.584 533.912 29.392 534.552 29.008C535.192 28.624 535.512 28.1333 535.512 27.536C535.512 27.024 535.192 26.5973 534.552 26.256C533.912 25.872 533.016 25.68 531.864 25.68ZM525.144 39.888C527.533 39.888 529.688 39.44 531.608 38.544C533.528 37.6053 534.85 36.3893 535.576 34.896V33.232C534.552 33.744 533.421 34.1493 532.184 34.448C530.946 34.704 529.453 34.96 527.704 35.216L525.4 35.6C523.01 36.0693 521.816 36.88 521.816 38.032C521.816 39.2693 522.925 39.888 525.144 39.888Z" fill="#492B1A"/>
<path d="M583.077 26.512C579.152 26.256 575.568 26.064 572.325 25.936L572.261 32.72C572.261 35.024 572.752 36.8373 573.733 38.16C574.757 39.44 576.549 40.08 579.109 40.08C580.09 40.08 581.029 39.9946 581.925 39.824C581.754 41.4026 581.669 43.0026 581.669 44.624C581.669 45.392 581.712 47.1413 581.797 49.872C579.92 50.2133 578.341 50.4266 577.061 50.512C575.781 50.5973 574.117 50.64 572.069 50.64C567.077 50.64 563.536 49.4453 561.445 47.056C559.397 44.624 558.373 41.2533 558.373 36.944L558.437 26.128C556.432 26.2133 554.341 26.3413 552.165 26.512V15.184C554.384 15.184 556.261 14.48 557.797 13.072C559.333 11.664 560.25 9.97862 560.549 8.01596H577.957C575.781 11.0026 573.37 13.392 570.725 15.184H583.077V26.512Z" fill="#492B1A"/>
<path d="M605.266 50.64C597.97 50.64 592.594 48.976 589.138 45.648C585.724 42.2773 584.018 37.8613 584.018 32.4C584.018 27.0666 585.724 22.736 589.138 19.408C592.594 16.08 597.97 14.416 605.266 14.416C610.172 14.416 614.268 15.2266 617.554 16.848C620.882 18.4266 623.335 20.5813 624.914 23.312C626.492 26 627.282 29.0293 627.282 32.4C627.282 37.904 625.447 42.32 621.778 45.648C618.151 48.976 612.647 50.64 605.266 50.64ZM605.522 39.76C608.295 39.76 610.364 39.0986 611.73 37.776C613.095 36.4533 613.778 34.6826 613.778 32.464C613.778 30.3733 613.095 28.6666 611.73 27.344C610.364 25.9786 608.295 25.296 605.522 25.296C602.748 25.296 600.722 25.9573 599.442 27.28C598.162 28.6026 597.522 30.3306 597.522 32.464C597.522 34.6826 598.162 36.4533 599.442 37.776C600.722 39.0986 602.748 39.76 605.522 39.76Z" fill="#492B1A"/>
<path d="M644.391 24.528C646.183 18.0853 650.641 14.864 657.767 14.864C659.004 14.864 660.199 14.9493 661.351 15.12L659.303 29.456C656.231 28.304 653.713 27.728 651.751 27.728C649.319 27.728 647.527 28.4533 646.375 29.904C645.223 31.3546 644.647 33.296 644.647 35.728V35.664L644.583 39.888C644.583 42.9173 644.668 46.288 644.839 50H629.543C629.884 43.856 630.055 38.0533 630.055 32.592C630.055 27.1306 629.884 21.2853 629.543 15.056C632.359 15.184 634.513 15.248 636.007 15.248C637.585 15.248 639.74 15.184 642.471 15.056L644.391 24.528Z" fill="#492B1A"/>
</svg>
