<svg width="29" height="21" viewBox="0 0 29 21" fill="none" xmlns="http://www.w3.org/2000/svg">
<path d="M12.5204 3.25782L13.9804 2.39782C14.2804 2.21782 14.6504 2.21782 14.9504 2.39782L16.4004 3.25782C16.7464 3.46782 16.8004 3.92782 16.5644 4.20982L17.4544 4.73682L17.7414 4.56682C18.0414 4.38682 18.4114 4.38682 18.7014 4.56682L20.1614 5.42682C20.5714 5.67682 20.5714 6.27682 20.1614 6.51682L19.5354 6.88582C19.537 6.94485 19.5356 7.00392 19.5314 7.06282V8.89782C19.5314 9.09482 19.4964 9.29382 19.4264 9.48482L20.1614 9.91782C20.5714 10.1678 20.5714 10.7678 20.1614 11.0078L18.7014 11.8678C18.5569 11.9562 18.3908 12.003 18.2214 12.003C18.052 12.003 17.8859 11.9562 17.7414 11.8678L16.9374 11.3938L15.9554 11.9738L16.4014 12.2378C16.8114 12.4878 16.8114 13.0878 16.4014 13.3278L14.9414 14.1878C14.7969 14.2762 14.6308 14.323 14.4614 14.323C14.292 14.323 14.1259 14.2762 13.9814 14.1878L12.5214 13.3278C12.1114 13.0778 12.1114 12.4778 12.5214 12.2378L12.9714 11.9718L12.1214 11.4688L11.1914 12.0168C11.0469 12.1052 10.8808 12.152 10.7114 12.152C10.542 12.152 10.3759 12.1052 10.2314 12.0168L8.77137 11.1568C8.36137 10.9068 8.36137 10.3068 8.77137 10.0668L9.55337 9.60682C9.45234 9.3838 9.4005 9.14165 9.40137 8.89682V7.06282L9.39937 7.03782L8.77137 6.66782C8.36137 6.41782 8.36137 5.81782 8.77137 5.57782L10.2314 4.71782C10.3759 4.62944 10.542 4.58267 10.7114 4.58267C10.8808 4.58267 11.0469 4.62944 11.1914 4.71782L11.3484 4.80982L12.3594 4.20782C12.3009 4.13738 12.2584 4.05513 12.2347 3.96672C12.211 3.87831 12.2067 3.78582 12.2221 3.6956C12.2375 3.60537 12.2722 3.51953 12.3238 3.44397C12.3755 3.36841 12.4419 3.30491 12.5204 3.25782ZM10.4004 8.48982V8.89682C10.4004 9.13482 10.5104 9.35282 10.7354 9.48582L13.7974 11.2968C14.2094 11.5428 14.7224 11.5428 15.1344 11.2968H15.1364L18.1964 9.48682C18.2992 9.42672 18.3844 9.3405 18.4432 9.23689C18.5021 9.13328 18.5325 9.01596 18.5314 8.89682V8.48982L15.6474 10.1958C15.2902 10.4087 14.8821 10.521 14.4664 10.521C14.0506 10.521 13.6425 10.4087 13.2854 10.1958L10.4014 8.48982H10.4004ZM13.7974 4.51582L10.7354 6.33682C10.6297 6.39776 10.5425 6.48598 10.4826 6.59225C10.4228 6.69851 10.3927 6.8189 10.3954 6.94082C10.3994 7.17082 10.5114 7.39382 10.7354 7.52582L13.7974 9.33682C14.2094 9.58282 14.7224 9.58282 15.1344 9.33682H15.1364L18.1964 7.52682C18.2993 7.46738 18.3849 7.382 18.4445 7.27918C18.5042 7.17635 18.5359 7.05969 18.5364 6.94082C18.5391 6.8189 18.5089 6.69851 18.4491 6.59225C18.3893 6.48598 18.302 6.39776 18.1964 6.33682L15.1294 4.52282C14.9293 4.39984 14.6992 4.33415 14.4643 4.33292C14.2295 4.33168 13.9988 4.39495 13.7974 4.51582Z" fill="black"/>
<path d="M5.01038 7.89787L6.47038 7.03787C6.77038 6.85787 7.14038 6.85787 7.43038 7.03787L8.89038 7.89787C9.30038 8.14787 9.30038 8.74787 8.89038 8.98787L7.43038 9.84787C7.28587 9.93625 7.11977 9.98301 6.95038 9.98301C6.78099 9.98301 6.61489 9.93625 6.47038 9.84787L5.01038 8.98787C4.60038 8.73787 4.60038 8.13787 5.01038 7.89787ZM21.5004 6.73787L20.0404 7.59787C19.6304 7.83787 19.6304 8.43787 20.0404 8.68787L21.5004 9.55787C21.8004 9.73787 22.1704 9.73787 22.4604 9.55787L23.9204 8.69787C24.3304 8.45787 24.3304 7.85787 23.9204 7.60787L22.4604 6.74787C22.3176 6.65576 22.1517 6.60594 21.9818 6.60417C21.8119 6.60241 21.645 6.64876 21.5004 6.73787Z" fill="black"/>
<path d="M12.3173 0.586876C12.9683 0.20266 13.7104 0 14.4663 0C15.2222 0 15.9643 0.20266 16.6153 0.586876L26.1633 6.24688H26.1653C26.3153 6.33488 26.4533 6.43488 26.5783 6.54388C27.525 7.21417 28.2413 8.16071 28.6293 9.25388C28.8492 9.82527 28.9525 10.435 28.9329 11.0469C28.9133 11.6589 28.7713 12.2607 28.5153 12.8169L28.5143 12.8179C28.1477 13.6102 27.5646 14.2827 26.8323 14.7579L26.8253 14.7619L18.1653 19.9779C17.0454 20.6422 15.7674 20.9928 14.4653 20.9928C13.1632 20.9928 11.8851 20.6422 10.7653 19.9779L10.7633 19.9759L2.10328 14.7599C1.36333 14.2899 0.776933 13.6138 0.41628 12.8149C0.162818 12.2585 0.0221509 11.6574 0.00241188 11.0464C-0.0173272 10.4353 0.084253 9.82643 0.30128 9.25488C0.686121 8.17702 1.39087 7.24236 2.32128 6.57588C2.458 6.45131 2.60711 6.34107 2.76628 6.24688L12.3163 0.586876H12.3173ZM12.8253 1.44788L3.27528 7.10788C2.20028 7.74488 2.20528 9.28988 3.27328 9.91588L3.27628 9.91688L12.8253 15.5769C13.3223 15.87 13.8888 16.0247 14.4658 16.0247C15.0428 16.0247 15.6093 15.87 16.1063 15.5769L25.6563 9.91688C26.7313 9.27988 26.7263 7.73488 25.6583 7.10888L25.6563 7.10788L16.1063 1.44788C15.6092 1.15482 15.0428 1.00026 14.4658 1.00026C13.8888 1.00026 13.3223 1.15482 12.8253 1.44788Z" fill="black"/>
</svg>
