<svg width="86" height="64" viewBox="0 0 86 64" fill="none" xmlns="http://www.w3.org/2000/svg">
<path d="M34.4 45.7143L56.717 32L34.4 18.2857V45.7143ZM84.108 9.92C84.667 12.0686 85.054 14.9486 85.312 18.6057C85.613 22.2629 85.742 25.4171 85.742 28.16L86 32C86 42.0114 85.312 49.3714 84.108 54.08C83.033 58.1943 80.539 60.8457 76.669 61.9886C74.648 62.5829 70.95 62.9943 65.274 63.2686C59.684 63.5886 54.567 63.7257 49.837 63.7257L43 64C24.983 64 13.76 63.2686 9.331 61.9886C5.461 60.8457 2.967 58.1943 1.892 54.08C1.333 51.9314 0.946 49.0514 0.688 45.3943C0.387 41.7371 0.258 38.5829 0.258 35.84L0 32C0 21.9886 0.688 14.6286 1.892 9.92C2.967 5.80572 5.461 3.15429 9.331 2.01143C11.352 1.41714 15.05 1.00571 20.726 0.731428C26.316 0.411428 31.433 0.274285 36.163 0.274285L43 0C61.017 0 72.24 0.731429 76.669 2.01143C80.539 3.15429 83.033 5.80572 84.108 9.92Z" fill="#69C9D2"/>
</svg>
