<svg width="399" height="67" viewBox="0 0 399 67" fill="none" xmlns="http://www.w3.org/2000/svg">
<path d="M17.112 13.488H31.96V24.88H17.112V13.488ZM23.32 65.456C19.2667 65.456 15.512 64.7733 12.056 63.408C8.64267 62.0427 5.93333 60.144 3.928 57.712C1.92267 55.28 0.92 52.4853 0.92 49.328C0.92 46.768 1.53867 44.5707 2.776 42.736C4.01333 40.9013 5.592 39.408 7.512 38.256L10.904 36.336C12.7387 35.312 13.9547 34.608 14.552 34.224C15.5333 33.6267 16.216 32.9653 16.6 32.24C16.984 31.5147 17.176 30.6613 17.176 29.68H31.832C31.832 32.9227 31.064 35.6533 29.528 37.872C27.992 40.048 25.4107 41.9467 21.784 43.568C20.1627 44.2933 18.968 45.104 18.2 46C17.4747 46.8533 17.112 47.8347 17.112 48.944C17.112 50.1813 17.688 51.248 18.84 52.144C20.0347 53.04 21.528 53.488 23.32 53.488C25.752 53.488 27.6293 52.8907 28.952 51.696C30.3173 50.5013 31 48.816 31 46.64C31 45.744 30.872 44.7627 30.616 43.696C34.0293 44.6773 39.128 45.168 45.912 45.168C45.9547 45.552 45.976 46.0853 45.976 46.768C45.976 50.352 45.016 53.552 43.096 56.368C41.2187 59.2267 38.552 61.4453 35.096 63.024C31.6827 64.6453 27.7573 65.456 23.32 65.456ZM105.219 30.384C105.219 43.696 98.755 51.5253 85.827 53.872C88.1737 54.9813 90.883 56.048 93.955 57.072C91.0963 59.504 87.3417 62.7467 82.691 66.8C77.9123 63.1307 73.8377 58.9707 70.467 54.32C62.8297 53.424 57.1977 50.9067 53.571 46.768C49.987 42.6293 48.195 37.168 48.195 30.384C48.195 22.7893 50.4777 16.8587 55.043 12.592C59.651 8.32533 66.8617 6.192 76.675 6.192C86.531 6.192 93.7417 8.32533 98.307 12.592C102.915 16.8587 105.219 22.7893 105.219 30.384ZM76.675 41.584C81.411 41.584 84.8243 40.688 86.915 38.896C89.0057 37.0613 90.051 34.224 90.051 30.384C90.051 26.6293 89.0057 23.8347 86.915 22C84.8243 20.1653 81.411 19.248 76.675 19.248C71.9817 19.248 68.5897 20.1653 66.499 22C64.4083 23.8347 63.363 26.6293 63.363 30.384C63.363 34.1813 64.4083 36.9973 66.499 38.832C68.5897 40.6667 71.9817 41.584 76.675 41.584ZM147.44 19.056C147.141 24.432 146.992 30.2347 146.992 36.464C146.992 42.736 147.141 48.5813 147.44 54C144.709 53.872 142.555 53.808 140.976 53.808C139.483 53.808 137.328 53.872 134.512 54L132.656 44.592C131.675 48.0053 130.139 50.544 128.048 52.208C125.957 53.8293 123.525 54.64 120.752 54.64C118.192 54.64 115.973 54.0853 114.096 52.976C112.219 51.824 110.789 50.288 109.808 48.368C108.869 46.448 108.4 44.2933 108.4 41.904V32.688C108.4 27.0133 108.293 22.4693 108.08 19.056H122.48C122.224 25.328 122.096 31.536 122.096 37.68C122.096 39.5573 122.544 41.0507 123.44 42.16C124.379 43.2693 125.552 43.824 126.96 43.824C128.283 43.824 129.435 43.248 130.416 42.096C131.44 40.9013 132.059 39.28 132.272 37.232V35.76C132.357 32.432 132.4 30.128 132.4 28.848C132.4 25.904 132.315 22.64 132.144 19.056H147.44ZM158.916 15.28C156.228 15.28 154.223 14.6187 152.9 13.296C151.62 11.9733 150.98 10.2453 150.98 8.112C150.98 6.02133 151.62 4.29333 152.9 2.928C154.223 1.56266 156.228 0.879997 158.916 0.879997C161.476 0.879997 163.439 1.584 164.804 2.992C166.169 4.35733 166.852 6.064 166.852 8.112C166.852 10.2453 166.191 11.9733 164.868 13.296C163.545 14.6187 161.561 15.28 158.916 15.28ZM151.492 54C151.791 47.1307 151.94 41.456 151.94 36.976C151.94 31.6427 151.769 25.6693 151.428 19.056H166.788C166.447 25.4133 166.276 31.3867 166.276 36.976C166.276 41.6693 166.425 47.344 166.724 54H151.492ZM204.206 38H183.342C183.683 39.8773 184.515 41.4133 185.838 42.608C187.203 43.76 189.123 44.336 191.598 44.336C193.39 44.336 195.075 43.9947 196.654 43.312C198.233 42.5867 199.491 41.584 200.43 40.304C203.289 41.712 207.086 43.2267 211.822 44.848C210.499 47.8347 208.089 50.224 204.59 52.016C201.134 53.7653 196.611 54.64 191.022 54.64C183.769 54.64 178.393 52.976 174.894 49.648C171.438 46.2773 169.71 41.8613 169.71 36.4C169.71 31.0667 171.438 26.736 174.894 23.408C178.35 20.08 183.726 18.416 191.022 18.416C195.374 18.416 199.15 19.1413 202.35 20.592C205.55 22.0427 208.003 24.0693 209.71 26.672C211.417 29.232 212.27 32.176 212.27 35.504C212.27 36.6133 212.227 37.4453 212.142 38H204.206ZM191.918 28.08C189.785 28.08 188.035 28.4853 186.67 29.296C185.305 30.1067 184.345 31.216 183.79 32.624H198.894C198.382 31.2587 197.55 30.1707 196.398 29.36C195.246 28.5067 193.753 28.08 191.918 28.08ZM239.445 54C239.701 47.728 239.829 41.9467 239.829 36.656C239.829 34.7787 239.36 33.2853 238.421 32.176C237.525 31.0667 236.373 30.512 234.965 30.512C233.557 30.512 232.362 31.152 231.381 32.432C230.4 33.6693 229.824 35.376 229.653 37.552C229.568 40.7947 229.525 43.0987 229.525 44.464C229.525 47.3653 229.61 50.544 229.781 54H214.485C214.826 47.856 214.997 42.0533 214.997 36.592C214.997 31.1307 214.826 25.2853 214.485 19.056C217.301 19.184 219.456 19.248 220.949 19.248C222.528 19.248 224.682 19.184 227.413 19.056L229.269 28.464C230.25 25.0507 231.786 22.5333 233.877 20.912C235.968 19.248 238.4 18.416 241.173 18.416C243.733 18.416 245.952 18.992 247.829 20.144C249.706 21.2533 251.114 22.768 252.053 24.688C253.034 26.608 253.525 28.7627 253.525 31.152V40.368C253.525 46.0427 253.632 50.5867 253.845 54H239.445ZM301.174 38H280.31C280.651 39.8773 281.483 41.4133 282.806 42.608C284.171 43.76 286.091 44.336 288.566 44.336C290.358 44.336 292.043 43.9947 293.622 43.312C295.2 42.5867 296.459 41.584 297.398 40.304C300.256 41.712 304.054 43.2267 308.79 44.848C307.467 47.8347 305.056 50.224 301.558 52.016C298.102 53.7653 293.579 54.64 287.99 54.64C280.736 54.64 275.36 52.976 271.862 49.648C268.406 46.2773 266.678 41.8613 266.678 36.4C266.678 31.0667 268.406 26.736 271.862 23.408C275.318 20.08 280.694 18.416 287.99 18.416C292.342 18.416 296.118 19.1413 299.318 20.592C302.518 22.0427 304.971 24.0693 306.678 26.672C308.384 29.232 309.238 32.176 309.238 35.504C309.238 36.6133 309.195 37.4453 309.11 38H301.174ZM288.886 28.08C286.752 28.08 285.003 28.4853 283.638 29.296C282.272 30.1067 281.312 31.216 280.758 32.624H295.862C295.35 31.2587 294.518 30.1707 293.366 29.36C292.214 28.5067 290.72 28.08 288.886 28.08ZM332.124 54.64C328.54 54.64 324.892 54.1493 321.18 53.168C317.511 52.144 314.055 50.608 310.812 48.56L317.532 39.408C319.495 40.816 321.863 41.9253 324.636 42.736C327.41 43.504 329.799 43.888 331.804 43.888C333.724 43.888 335.196 43.632 336.22 43.12C337.287 42.5653 337.82 41.8613 337.82 41.008C337.82 40.3253 337.564 39.792 337.052 39.408C336.54 39.024 335.836 38.832 334.94 38.832C334.386 38.832 333.746 38.8533 333.02 38.896C332.338 38.9387 331.783 38.9813 331.356 39.024C329.138 39.28 326.855 39.408 324.508 39.408C320.711 39.408 317.618 38.704 315.228 37.296C312.882 35.8453 311.708 33.4987 311.708 30.256C311.708 26.5013 313.479 23.6 317.02 21.552C320.562 19.4613 325.767 18.416 332.636 18.416C336.007 18.416 339.399 18.9067 342.812 19.888C346.268 20.8267 349.319 22.256 351.964 24.176L344.604 31.6C342.172 30.32 339.89 29.424 337.756 28.912C335.666 28.3573 333.554 28.08 331.42 28.08C329.927 28.08 328.647 28.3787 327.58 28.976C326.514 29.5733 325.98 30.256 325.98 31.024C325.98 31.6213 326.194 32.0907 326.62 32.432C327.09 32.7733 327.687 32.944 328.412 32.944C329.138 32.944 330.14 32.88 331.42 32.752C334.535 32.5387 336.86 32.432 338.396 32.432C342.834 32.432 346.268 33.1787 348.7 34.672C351.132 36.1653 352.348 38.448 352.348 41.52C352.348 46.128 350.556 49.4773 346.972 51.568C343.388 53.616 338.439 54.64 332.124 54.64ZM376.603 3.312C380.657 3.312 384.39 3.99466 387.803 5.36C391.259 6.72533 393.99 8.624 395.995 11.056C398.001 13.488 399.003 16.2827 399.003 19.44C399.003 22 398.385 24.1973 397.147 26.032C395.91 27.8667 394.331 29.36 392.411 30.512L389.019 32.432C387.185 33.456 385.969 34.16 385.371 34.544C384.39 35.1413 383.707 35.8027 383.323 36.528C382.939 37.2533 382.747 38.1067 382.747 39.088H368.091C368.091 35.8453 368.859 33.136 370.395 30.96C371.931 28.7413 374.513 26.8213 378.139 25.2C379.761 24.4747 380.934 23.6853 381.659 22.832C382.427 21.936 382.811 20.9333 382.811 19.824C382.811 18.5867 382.214 17.52 381.019 16.624C379.867 15.728 378.395 15.28 376.603 15.28C374.171 15.28 372.273 15.8773 370.907 17.072C369.585 18.2667 368.923 19.952 368.923 22.128C368.923 22.9813 369.051 23.9627 369.307 25.072C365.894 24.0907 360.795 23.6 354.011 23.6C353.969 23.216 353.947 22.6827 353.947 22C353.947 18.416 354.886 15.216 356.763 12.4C358.683 9.54133 361.35 7.32267 364.763 5.744C368.219 4.12266 372.166 3.312 376.603 3.312ZM382.811 55.28H367.963V43.888H382.811V55.28Z" fill="#492B1A"/>
</svg>
